<?xml version="1.0" standalone="no"?>
<!DOCTYPE svg PUBLIC "-//W3C//DTD SVG 1.0//EN" "http://www.w3.org/TR/2001/REC-SVG-20010904/DTD/svg10.dtd">
<svg xmlns="http://www.w3.org/2000/svg" xmlns:xlink="http://www.w3.org/1999/xlink" id="body_1" width="102" height="77">

<g transform="matrix(0.15665148 0 0 0.15665148 12.500003 -0)">
	<g>
        <path d="M245.768 116.773L245.768 0L236.252 5.148C 190.185 30.069 162.682 71.798004 162.682 116.773C 162.682 158.219 186.052 196.896 225.768 222.216L225.768 222.216L225.768 116.773L245.768 116.773z" stroke="none" fill="#91DC5A" fill-rule="nonzero" />
        <path d="M265.768 116.773L265.768 222.216C 305.48502 196.897 328.854 158.219 328.854 116.773C 328.854 71.798004 301.351 30.069 255.284 5.1480026L255.284 5.1480026L245.768 0L245.768 116.773L265.768 116.773z" stroke="none" fill="#6DC82A" fill-rule="nonzero" />
        <path d="M373.386 238.221L458.994 187.333L449.706 181.78299C 429.695 169.82599 408.04898 163.50598 387.107 163.50598C 369.253 163.50598 352.693 167.96799 337.891 176.76698C 308.495 194.24098 290.693 226.736 288.90298 265.17297L288.90298 265.17297L363.166 221.02898L373.386 238.221z" stroke="none" fill="#91DC5A" fill-rule="nonzero" />
        <path d="M383.606 255.413L309.35498 299.55C 326.24298 307.73398 343.95697 312.026 361.19498 312.026C 379.04898 312.026 395.61 307.564 410.412 298.765C 442.875 279.46802 461.201 241.85202 459.43298 198.143L459.43298 198.143L458.995 187.332L373.387 238.22L383.606 255.413z" stroke="none" fill="#6DC82A" fill-rule="nonzero" />
        <path d="M118.15 238.221L32.542 187.333L32.104 198.144C 30.336 241.853 48.661 279.468 81.125 298.766C 95.928 307.56598 112.487 312.02698 130.342 312.02698C 147.58 312.02698 165.29399 307.735 182.18199 299.55096L182.18199 299.55096L107.93099 255.41397L118.15 238.221z" stroke="none" fill="#6DC82A" fill-rule="nonzero" />
        <path d="M128.369 221.029L202.632 265.173C 200.843 226.735 183.04001 194.241 153.64401 176.767C 138.84102 167.967 122.28201 163.506 104.42801 163.506C 83.48701 163.506 61.840008 169.826 41.82901 181.78299L41.82901 181.78299L32.541008 187.333L118.14901 238.221L128.369 221.029z" stroke="none" fill="#91DC5A" fill-rule="nonzero" />
        <path d="M265.768 348.942L265.768 325.45898L309.354 299.55L383.605 255.413L373.38602 238.221L363.16702 221.02899L288.90402 265.173L265.76804 278.926L265.76804 222.215L265.76804 116.773L245.76804 116.773L225.76804 116.773L225.76804 222.216L225.76804 278.927L202.63203 265.174L128.36903 221.03001L118.15003 238.22202L107.93103 255.41402L182.18204 299.55103L225.76804 325.46002L225.76804 348.94302C 232.36203 348.01102 239.04404 347.53302 245.76804 347.53302C 252.49203 347.53302 259.174 348.01 265.768 348.942z" stroke="none" fill="#00665A" fill-rule="nonzero" />
        <path d="M245.768 347.532C 239.044 347.532 232.362 348.01 225.768 348.94202C 196.916 353.019 169.76001 365.816 148.224 385.618C 142.746 384.76102 137.209 384.329 131.665 384.329C 72.54999 384.329 24.456993 432.422 24.456993 491.53702L24.456993 491.53702L245.768 491.53702L245.768 347.532z" stroke="none" fill="#B39A7C" fill-rule="nonzero" />
        <path d="M359.872 384.329C 354.327 384.329 348.79102 384.76102 343.312 385.618C 321.776 365.816 294.62 353.018 265.768 348.941C 259.174 348.009 252.492 347.531 245.768 347.531L245.768 347.531L245.768 491.536L467.08 491.536C 467.08 432.423 418.986 384.329 359.872 384.329z" stroke="none" fill="#A78966" fill-rule="nonzero" />
	</g>
	<g>
	</g>
	<g>
	</g>
	<g>
	</g>
	<g>
	</g>
	<g>
	</g>
	<g>
	</g>
	<g>
	</g>
	<g>
	</g>
	<g>
	</g>
	<g>
	</g>
	<g>
	</g>
	<g>
	</g>
	<g>
	</g>
	<g>
	</g>
	<g>
	</g>
</g>
</svg>